<svg preserveAspectRatio="none" width="100%" height="100%" overflow="visible" style="display: block;" viewBox="0 0 37.9182 17" fill="none" xmlns="http://www.w3.org/2000/svg">
<path d="M29.3866 0C27.1115 0 24.9628 0.884758 23.4303 2.41729L18.9591 6.3829L16.5576 8.5H16.5734L12.3234 12.276C11.3123 13.2872 9.96933 13.8402 8.5316 13.8402C5.57714 13.8402 3.17565 11.4545 3.17565 8.5C3.17565 5.54554 5.57714 3.15985 8.5316 3.15985C9.96933 3.15985 11.3123 3.71283 12.3866 4.78717L14.1719 6.3671L16.5576 4.25L14.5669 2.49628C12.9554 0.884758 10.8067 0 8.5316 0C3.82342 0 0 3.82342 0 8.5C0 13.1766 3.82342 17 8.5316 17C10.8067 17 12.9554 16.1152 14.4879 14.5827L18.9591 10.6329L18.9749 10.6487L21.3606 8.5H21.3448L25.5948 4.72398C26.606 3.71283 27.9489 3.15985 29.3866 3.15985C32.3411 3.15985 34.7426 5.54554 34.7426 8.5C34.7426 11.4545 32.3411 13.8402 29.3866 13.8402C27.9647 13.8402 26.606 13.2872 25.5316 12.2128L23.7305 10.6171L21.3448 12.7342L23.3513 14.5037C24.9628 16.0994 27.0957 16.9842 29.3866 16.9842C34.0948 16.9842 37.9182 13.1766 37.9182 8.4842C37.9182 3.79182 34.0948 0 29.3866 0Z" fill="#EC4E18"/>
</svg>
