<svg xmlns:xlink="http://www.w3.org/1999/xlink" xmlns="http://www.w3.org/2000/svg" width="2295" height="1938" viewBox="0 0 2295 1938" fill="none">
<mask id="path-1-outside-1_2_745" maskUnits="userSpaceOnUse" x="-1.00684" y="0.445312" width="2296" height="1937" fill="black">
<rect fill="white" x="-1.00684" y="0.445312" width="2296" height="1937"/>
<path fill-rule="evenodd" clip-rule="evenodd" d="M1795.21 1.44531H505.885C267.85 1.44531 74.8849 194.411 74.8849 432.445V1349.62C74.8849 1467.04 121.836 1573.49 197.988 1651.22C179.849 1658.31 160.215 1666.55 140.967 1675.63C103.49 1693.29 63.9411 1715.69 41.3122 1740.64L41.3071 1740.64C29.3027 1753.89 16.3753 1772.39 8.48539 1793.5C0.578284 1814.65 -2.93997 1840.43 7.39855 1865.93L7.4023 1865.93C15.03 1884.73 31.4649 1900.56 47.5881 1911.57C63.9288 1922.73 84.0078 1931.73 102.675 1933.73L102.677 1933.73C264.098 1951.07 389.309 1879.78 480.831 1827.68L480.836 1827.67C503.518 1814.76 524.131 1803.02 542.712 1794.11C552.213 1789.55 562.257 1785.06 572.816 1780.62H1795.21C1965.4 1780.62 2112.55 1681.98 2182.61 1538.76C2183.49 1538.7 2184.36 1538.65 2185.22 1538.59C2203.45 1537.47 2217.65 1536.64 2227.28 1536.09C2229.01 1535.99 2230.6 1535.9 2232.03 1535.82C2234.59 1535.68 2236.67 1535.56 2238.25 1535.48C2239.48 1535.41 2240.41 1535.36 2241.04 1535.33L2241.95 1535.28C2241.96 1535.28 2241.96 1535.28 2240.7 1511.31L2241.96 1535.28L2274.48 1533.57L2243.68 1450H2226.95V1474C2226.95 1450 2226.94 1450 2226.93 1450L2225.89 1450L2224.73 1450C2224.18 1450 2223.54 1450 2222.79 1450.01C2220.75 1450.01 2217.96 1450.02 2214.46 1450.03C2217.06 1439.11 2219.25 1428.03 2221.01 1416.8C2231.27 1417.04 2240.07 1417.25 2247.22 1417.42C2251.23 1417.52 2254.73 1417.6 2257.68 1417.68C2259.94 1417.73 2261.89 1417.78 2263.5 1417.82C2265.35 1417.87 2266.76 1417.9 2267.71 1417.93L2269.12 1417.97C2269.13 1417.97 2269.13 1417.97 2269.76 1393.97L2269.13 1417.97L2293.76 1418.61V1356.21L2273.23 1353.21L2272.99 1354.85C2273.23 1353.21 2273.23 1353.21 2273.23 1353.21L2271.56 1352.96L2269.22 1352.62L2266.7 1352.26C2262.43 1351.64 2256.16 1350.73 2248.11 1349.57C2241.85 1348.67 2234.51 1347.62 2226.21 1346.44V432.445C2226.21 194.411 2033.25 1.44531 1795.21 1.44531ZM2225.71 1370.61C2253.54 1374.58 2269.76 1376.95 2269.76 1376.95V1393.97C2269.76 1393.97 2268.92 1393.95 2267.28 1393.91C2263.71 1393.82 2256.38 1393.63 2245.76 1393.38C2239.6 1393.23 2232.34 1393.06 2224.07 1392.87C2224.81 1385.5 2225.35 1378.08 2225.71 1370.61ZM2155.21 1336.43V432.445C2155.21 233.623 1994.04 72.4453 1795.21 72.4453H505.885C307.062 72.4453 145.885 233.623 145.885 432.445V1349.62C145.885 1460.05 195.602 1558.86 273.873 1624.9C555.866 1538.38 1033.92 1494.91 1444.38 1472.86C1657.16 1461.43 1852.76 1455.72 1995.16 1452.86C2053.46 1451.69 2102.85 1451 2140.86 1450.59C2144.23 1439.04 2147.03 1427.26 2149.24 1415.27C2102.68 1414.33 2045.27 1413.3 1982 1412.41C1818.82 1410.12 1616.96 1408.81 1461.34 1412.73C1365.4 1415.14 1173.27 1423.96 1004.83 1432.19C920.672 1436.31 842.529 1440.27 785.424 1443.21C756.872 1444.68 733.58 1445.89 717.428 1446.73C712.857 1446.97 708.857 1447.18 705.472 1447.36C702.877 1447.49 700.642 1447.61 698.789 1447.71L693.925 1447.96L692.273 1448.05C692.269 1448.05 692.267 1448.05 691 1424.08C691 1424.08 701.492 1423.53 720.12 1422.56C839.648 1416.32 1294.13 1392.92 1460.74 1388.73C1678.77 1383.25 1986.81 1387.98 2152.82 1391.33C2153.99 1381.22 2154.74 1370.99 2155.05 1360.64C1977.94 1335.93 1645.26 1291.49 1519.65 1288.14C928.345 1272.37 758.143 1355.64 709.805 1399.06C693.292 1413.9 691 1424.08 691 1424.08C667.585 1418.81 667.598 1418.76 667.611 1418.7L667.638 1418.59L667.673 1418.44L667.696 1418.34C667.737 1418.18 667.782 1418 667.832 1417.81C667.93 1417.44 668.047 1417.03 668.183 1416.59C668.457 1415.7 668.812 1414.66 669.27 1413.51C670.188 1411.18 671.512 1408.37 673.411 1405.16C677.219 1398.72 683.241 1390.85 692.703 1382.17C711.548 1364.9 743.984 1344.49 800.129 1325.45C912.099 1287.47 1122.58 1253.54 1520.29 1264.15C1609.16 1266.52 1798.06 1288.93 1963.33 1310.5C2034.55 1319.79 2101.73 1328.98 2155.21 1336.43ZM691 1424.08L692.267 1448.05L660.631 1449.72L667.585 1418.81L691 1424.08ZM2132.9 1474.68C1816.25 1478.27 781.679 1500.86 297.154 1642.97C356.029 1684.94 428.074 1709.62 505.885 1709.62H707.813C1111.21 1596.19 1823.25 1538.78 2112.84 1519.23C2120.49 1504.93 2127.21 1490.05 2132.9 1474.68ZM2098.1 1544.29C2077.79 1545.68 2055.65 1547.25 2031.92 1548.99C1903.28 1558.43 1727.63 1573.01 1539.51 1593.59C1351.34 1614.17 1150.99 1640.72 972.868 1674.07C913.408 1685.2 856.662 1697.05 803.825 1709.62H1795.21C1922.32 1709.62 2034.04 1643.75 2098.1 1544.29ZM516.076 1780.62H505.885C394.801 1780.62 293.533 1738.6 217.11 1669.58C162.636 1690.19 89.7363 1722.97 59.09 1756.76C38.9303 1779 16.7616 1817.35 28.0512 1852.53C28.5207 1853.99 29.0481 1855.45 29.6359 1856.9L29.6365 1856.9L29.6399 1856.91V1856.9L29.6434 1856.91L29.644 1856.91C30.2251 1858.34 30.8965 1859.77 31.6512 1861.2C44.1914 1884.88 79.7099 1907.13 105.24 1909.87C258.032 1926.28 374.425 1860.25 465.927 1808.34C483.538 1798.35 500.227 1788.88 516.076 1780.62ZM2207.98 1474.06C2220.39 1474 2226.95 1474 2226.95 1474L2240.7 1511.31C2240.7 1511.31 2231.94 1511.77 2215.64 1512.72C2209.42 1513.08 2202.1 1513.52 2193.75 1514.03C2199.13 1501.01 2203.88 1487.68 2207.98 1474.06Z"/>
</mask>
<path fill-rule="evenodd" clip-rule="evenodd" d="M1795.21 1.44531H505.885C267.85 1.44531 74.8849 194.411 74.8849 432.445V1349.62C74.8849 1467.04 121.836 1573.49 197.988 1651.22C179.849 1658.31 160.215 1666.55 140.967 1675.63C103.49 1693.29 63.9411 1715.69 41.3122 1740.64L41.3071 1740.64C29.3027 1753.89 16.3753 1772.39 8.48539 1793.5C0.578284 1814.65 -2.93997 1840.43 7.39855 1865.93L7.4023 1865.93C15.03 1884.73 31.4649 1900.56 47.5881 1911.57C63.9288 1922.73 84.0078 1931.73 102.675 1933.73L102.677 1933.73C264.098 1951.07 389.309 1879.78 480.831 1827.68L480.836 1827.67C503.518 1814.76 524.131 1803.02 542.712 1794.11C552.213 1789.55 562.257 1785.06 572.816 1780.62H1795.21C1965.4 1780.62 2112.55 1681.98 2182.61 1538.76C2183.49 1538.7 2184.36 1538.65 2185.22 1538.59C2203.45 1537.47 2217.65 1536.64 2227.28 1536.09C2229.01 1535.99 2230.6 1535.9 2232.03 1535.82C2234.59 1535.68 2236.67 1535.56 2238.25 1535.48C2239.48 1535.41 2240.41 1535.36 2241.04 1535.33L2241.95 1535.28C2241.96 1535.28 2241.96 1535.28 2240.7 1511.31L2241.96 1535.28L2274.48 1533.57L2243.68 1450H2226.95V1474C2226.95 1450 2226.94 1450 2226.93 1450L2225.89 1450L2224.73 1450C2224.18 1450 2223.54 1450 2222.79 1450.01C2220.75 1450.01 2217.96 1450.02 2214.46 1450.03C2217.06 1439.11 2219.25 1428.03 2221.01 1416.8C2231.27 1417.04 2240.07 1417.25 2247.22 1417.42C2251.23 1417.52 2254.73 1417.6 2257.68 1417.68C2259.94 1417.73 2261.89 1417.78 2263.5 1417.82C2265.35 1417.87 2266.76 1417.9 2267.71 1417.93L2269.12 1417.97C2269.13 1417.97 2269.13 1417.97 2269.76 1393.97L2269.13 1417.97L2293.76 1418.61V1356.21L2273.23 1353.21L2272.99 1354.85C2273.23 1353.21 2273.23 1353.21 2273.23 1353.21L2271.56 1352.96L2269.22 1352.62L2266.7 1352.26C2262.43 1351.64 2256.16 1350.73 2248.11 1349.57C2241.85 1348.67 2234.51 1347.62 2226.21 1346.44V432.445C2226.21 194.411 2033.25 1.44531 1795.21 1.44531ZM2225.71 1370.61C2253.54 1374.58 2269.76 1376.95 2269.76 1376.95V1393.97C2269.76 1393.97 2268.92 1393.95 2267.28 1393.91C2263.71 1393.82 2256.38 1393.63 2245.76 1393.38C2239.6 1393.23 2232.34 1393.06 2224.07 1392.87C2224.81 1385.5 2225.35 1378.08 2225.71 1370.61ZM2155.21 1336.43V432.445C2155.21 233.623 1994.04 72.4453 1795.21 72.4453H505.885C307.062 72.4453 145.885 233.623 145.885 432.445V1349.62C145.885 1460.05 195.602 1558.86 273.873 1624.9C555.866 1538.38 1033.92 1494.91 1444.38 1472.86C1657.16 1461.43 1852.76 1455.72 1995.16 1452.86C2053.46 1451.69 2102.85 1451 2140.86 1450.59C2144.23 1439.04 2147.03 1427.26 2149.24 1415.27C2102.68 1414.33 2045.27 1413.3 1982 1412.41C1818.82 1410.12 1616.96 1408.81 1461.34 1412.73C1365.4 1415.14 1173.27 1423.96 1004.83 1432.19C920.672 1436.31 842.529 1440.27 785.424 1443.21C756.872 1444.68 733.58 1445.89 717.428 1446.73C712.857 1446.97 708.857 1447.18 705.472 1447.36C702.877 1447.49 700.642 1447.61 698.789 1447.71L693.925 1447.96L692.273 1448.05C692.269 1448.05 692.267 1448.05 691 1424.08C691 1424.08 701.492 1423.53 720.12 1422.56C839.648 1416.32 1294.13 1392.92 1460.74 1388.73C1678.77 1383.25 1986.81 1387.98 2152.82 1391.33C2153.99 1381.22 2154.74 1370.99 2155.05 1360.64C1977.94 1335.93 1645.26 1291.49 1519.65 1288.14C928.345 1272.37 758.143 1355.64 709.805 1399.06C693.292 1413.9 691 1424.08 691 1424.08C667.585 1418.81 667.598 1418.76 667.611 1418.7L667.638 1418.59L667.673 1418.44L667.696 1418.34C667.737 1418.18 667.782 1418 667.832 1417.81C667.93 1417.44 668.047 1417.03 668.183 1416.59C668.457 1415.7 668.812 1414.66 669.27 1413.51C670.188 1411.18 671.512 1408.37 673.411 1405.16C677.219 1398.72 683.241 1390.85 692.703 1382.17C711.548 1364.9 743.984 1344.49 800.129 1325.45C912.099 1287.47 1122.58 1253.54 1520.29 1264.15C1609.16 1266.52 1798.06 1288.93 1963.33 1310.5C2034.55 1319.79 2101.73 1328.98 2155.21 1336.43ZM691 1424.08L692.267 1448.05L660.631 1449.72L667.585 1418.81L691 1424.08ZM2132.9 1474.68C1816.25 1478.27 781.679 1500.86 297.154 1642.97C356.029 1684.94 428.074 1709.62 505.885 1709.62H707.813C1111.21 1596.19 1823.25 1538.78 2112.84 1519.23C2120.49 1504.93 2127.21 1490.05 2132.9 1474.68ZM2098.1 1544.29C2077.79 1545.68 2055.65 1547.25 2031.92 1548.99C1903.28 1558.43 1727.63 1573.01 1539.51 1593.59C1351.34 1614.17 1150.99 1640.72 972.868 1674.07C913.408 1685.2 856.662 1697.05 803.825 1709.62H1795.21C1922.32 1709.62 2034.04 1643.75 2098.1 1544.29ZM516.076 1780.62H505.885C394.801 1780.62 293.533 1738.6 217.11 1669.58C162.636 1690.19 89.7363 1722.97 59.09 1756.76C38.9303 1779 16.7616 1817.35 28.0512 1852.53C28.5207 1853.99 29.0481 1855.45 29.6359 1856.9L29.6365 1856.9L29.6399 1856.91V1856.9L29.6434 1856.91L29.644 1856.91C30.2251 1858.34 30.8965 1859.77 31.6512 1861.2C44.1914 1884.88 79.7099 1907.13 105.24 1909.87C258.032 1926.28 374.425 1860.25 465.927 1808.34C483.538 1798.35 500.227 1788.88 516.076 1780.62ZM2207.98 1474.06C2220.39 1474 2226.95 1474 2226.95 1474L2240.7 1511.31C2240.7 1511.31 2231.94 1511.77 2215.64 1512.72C2209.42 1513.08 2202.1 1513.52 2193.75 1514.03C2199.13 1501.01 2203.88 1487.68 2207.98 1474.06Z" fill="white"/>
<path d="M197.988 1651.22L198.352 1652.15L199.761 1651.6L198.702 1650.52L197.988 1651.22ZM140.967 1675.63L141.394 1676.53L141.394 1676.53L140.967 1675.63ZM41.3122 1740.64L42.0478 1741.31L42.0529 1741.31L41.3122 1740.64ZM41.3071 1740.64L40.5715 1739.97L40.5661 1739.97L41.3071 1740.64ZM8.48539 1793.5L7.54869 1793.15L7.54869 1793.15L8.48539 1793.5ZM7.39855 1865.93L6.47183 1866.3L6.7814 1867.07L7.59006 1866.91L7.39855 1865.93ZM7.4023 1865.93L8.32897 1865.55L8.01932 1864.79L7.21079 1864.95L7.4023 1865.93ZM47.5881 1911.57L48.1522 1910.75L48.1522 1910.75L47.5881 1911.57ZM102.675 1933.73L102.568 1934.73L102.592 1934.73L102.617 1934.73L102.675 1933.73ZM102.677 1933.73L102.784 1932.74L102.759 1932.74L102.735 1932.73L102.677 1933.73ZM480.831 1827.68L480.369 1826.79L480.353 1826.8L480.337 1826.81L480.831 1827.68ZM480.836 1827.67L481.298 1828.56L481.314 1828.55L481.33 1828.54L480.836 1827.67ZM542.712 1794.11L542.28 1793.21L542.28 1793.21L542.712 1794.11ZM572.816 1780.62V1779.62H572.615L572.429 1779.7L572.816 1780.62ZM2182.61 1538.76L2182.55 1537.76L2181.97 1537.79L2181.71 1538.32L2182.61 1538.76ZM2185.22 1538.59L2185.16 1537.6L2185.16 1537.6L2185.22 1538.59ZM2227.28 1536.09L2227.34 1537.09L2227.34 1537.09L2227.28 1536.09ZM2232.03 1535.82L2231.98 1534.82L2231.98 1534.82L2232.03 1535.82ZM2238.25 1535.48L2238.3 1536.48L2238.3 1536.48L2238.25 1535.48ZM2241.04 1535.33L2240.98 1534.33L2240.98 1534.33L2241.04 1535.33ZM2241.95 1535.28L2242 1536.28L2242.01 1536.28L2241.95 1535.28ZM2240.7 1511.31L2241.7 1511.26L2241.69 1511.11L2241.64 1510.96L2240.7 1511.31ZM2241.96 1535.28L2240.96 1535.33L2241.01 1536.33L2242.01 1536.28L2241.96 1535.28ZM2274.48 1533.57L2274.53 1534.57L2275.89 1534.49L2275.42 1533.22L2274.48 1533.57ZM2243.68 1450L2244.62 1449.65L2244.38 1449H2243.68V1450ZM2226.95 1450V1449H2225.95V1450H2226.95ZM2226.93 1450V1449L2226.93 1449L2226.93 1450ZM2225.89 1450L2225.89 1449L2225.89 1449L2225.89 1450ZM2224.73 1450L2224.73 1449L2224.73 1449L2224.73 1450ZM2222.79 1450.01L2222.8 1451.01L2222.8 1451.01L2222.79 1450.01ZM2214.46 1450.03L2213.49 1449.8L2213.19 1451.03L2214.46 1451.03L2214.46 1450.03ZM2221.01 1416.8L2221.03 1415.8L2220.16 1415.78L2220.02 1416.65L2221.01 1416.8ZM2247.22 1417.42L2247.2 1418.42L2247.2 1418.42L2247.22 1417.42ZM2257.68 1417.68L2257.65 1418.67L2257.65 1418.67L2257.68 1417.68ZM2263.5 1417.82L2263.47 1418.82L2263.47 1418.82L2263.5 1417.82ZM2267.71 1417.93L2267.73 1416.93L2267.73 1416.93L2267.71 1417.93ZM2269.12 1417.97L2269.1 1418.96L2269.11 1418.97H2269.12V1417.97ZM2269.76 1393.97L2270.76 1394L2270.76 1393.99V1393.97H2269.76ZM2269.13 1417.97L2268.13 1417.94L2268.1 1418.94L2269.1 1418.96L2269.13 1417.97ZM2293.76 1418.61L2293.73 1419.61L2294.76 1419.64V1418.61H2293.76ZM2293.76 1356.21H2294.76V1355.34L2293.9 1355.22L2293.76 1356.21ZM2273.23 1353.21L2273.38 1352.22L2272.39 1352.07L2272.24 1353.06L2273.23 1353.21ZM2272.99 1354.85L2272 1354.7L2273.98 1354.99L2272.99 1354.85ZM2273.23 1353.21L2273.08 1354.19L2273.09 1354.2L2273.1 1354.2L2273.23 1353.21ZM2271.56 1352.96L2271.71 1351.97L2271.71 1351.97L2271.56 1352.96ZM2269.22 1352.62L2269.36 1351.63L2269.36 1351.63L2269.22 1352.62ZM2266.7 1352.26L2266.84 1351.27L2266.84 1351.27L2266.7 1352.26ZM2248.11 1349.57L2247.97 1350.56L2247.97 1350.56L2248.11 1349.57ZM2226.21 1346.44H2225.21V1347.31L2226.07 1347.43L2226.21 1346.44ZM2269.76 1376.95H2270.76V1376.09L2269.9 1375.96L2269.76 1376.95ZM2225.71 1370.61L2225.85 1369.62L2224.77 1369.47L2224.71 1370.56L2225.71 1370.61ZM2267.28 1393.91L2267.25 1394.91L2267.25 1394.91L2267.28 1393.91ZM2245.76 1393.38L2245.74 1394.38L2245.74 1394.38L2245.76 1393.38ZM2224.07 1392.87L2223.08 1392.77L2222.97 1393.84L2224.05 1393.87L2224.07 1392.87ZM2155.21 1336.43L2155.08 1337.42L2156.21 1337.58V1336.43H2155.21ZM273.873 1624.9L273.228 1625.66L273.645 1626.02L274.166 1625.86L273.873 1624.9ZM1444.38 1472.86L1444.43 1473.86L1444.43 1473.86L1444.38 1472.86ZM1995.16 1452.86L1995.18 1453.86L1995.18 1453.86L1995.16 1452.86ZM2140.86 1450.59L2140.88 1451.59L2141.62 1451.58L2141.82 1450.87L2140.86 1450.59ZM2149.24 1415.27L2150.23 1415.45L2150.44 1414.29L2149.26 1414.27L2149.24 1415.27ZM1982 1412.41L1981.98 1413.41L1981.98 1413.41L1982 1412.41ZM1461.34 1412.73L1461.37 1413.73L1461.37 1413.73L1461.34 1412.73ZM1004.83 1432.19L1004.78 1431.2L1004.78 1431.2L1004.83 1432.19ZM785.424 1443.21L785.372 1442.21L785.372 1442.21L785.424 1443.21ZM717.428 1446.73L717.48 1447.73L717.48 1447.73L717.428 1446.73ZM705.472 1447.36L705.524 1448.35L705.524 1448.35L705.472 1447.36ZM698.789 1447.71L698.736 1446.71L698.736 1446.71L698.789 1447.71ZM693.925 1447.96L693.872 1446.96L693.872 1446.96L693.925 1447.96ZM692.273 1448.05L692.221 1447.05L692.216 1447.05L692.273 1448.05ZM720.12 1422.56L720.172 1423.56L720.172 1423.56L720.12 1422.56ZM1460.74 1388.73L1460.77 1389.73L1460.77 1389.73L1460.74 1388.73ZM2152.82 1391.33L2152.8 1392.33L2153.71 1392.35L2153.82 1391.45L2152.82 1391.33ZM2155.05 1360.64L2156.05 1360.67L2156.08 1359.77L2155.19 1359.65L2155.05 1360.64ZM1519.65 1288.14L1519.62 1289.14L1519.62 1289.14L1519.65 1288.14ZM709.805 1399.06L709.137 1398.32L709.137 1398.32L709.805 1399.06ZM667.611 1418.7L666.637 1418.48L666.636 1418.48L667.611 1418.7ZM667.638 1418.59L666.665 1418.35L666.664 1418.36L667.638 1418.59ZM667.673 1418.44L666.701 1418.2L666.7 1418.21L667.673 1418.44ZM667.696 1418.34L666.725 1418.11L666.725 1418.11L667.696 1418.34ZM667.832 1417.81L666.865 1417.56L666.865 1417.56L667.832 1417.81ZM668.183 1416.59L667.227 1416.29L667.227 1416.29L668.183 1416.59ZM669.27 1413.51L668.34 1413.14L668.34 1413.14L669.27 1413.51ZM673.411 1405.16L674.271 1405.67L674.271 1405.67L673.411 1405.16ZM692.703 1382.17L692.027 1381.44L692.027 1381.44L692.703 1382.17ZM800.129 1325.45L800.45 1326.4L800.45 1326.4L800.129 1325.45ZM1520.29 1264.15L1520.26 1265.15L1520.26 1265.15L1520.29 1264.15ZM1963.33 1310.5L1963.2 1311.49L1963.2 1311.49L1963.33 1310.5ZM692.267 1448.05L692.32 1449.05L693.318 1449L693.266 1448L692.267 1448.05ZM660.631 1449.72L659.655 1449.5L659.365 1450.79L660.684 1450.72L660.631 1449.72ZM667.585 1418.81L667.805 1417.84L666.829 1417.62L666.61 1418.6L667.585 1418.81ZM2132.9 1474.68L2133.84 1475.03L2134.34 1473.66L2132.89 1473.68L2132.9 1474.68ZM297.154 1642.97L296.872 1642.01L294.897 1642.59L296.573 1643.78L297.154 1642.97ZM707.813 1709.62V1710.62H707.951L708.084 1710.59L707.813 1709.62ZM2112.84 1519.23L2112.91 1520.23L2113.46 1520.19L2113.72 1519.7L2112.84 1519.23ZM2031.92 1548.99L2031.99 1549.99L2031.99 1549.99L2031.92 1548.99ZM2098.1 1544.29L2098.94 1544.83L2100.02 1543.15L2098.03 1543.29L2098.1 1544.29ZM1539.51 1593.59L1539.41 1592.59L1539.41 1592.59L1539.51 1593.59ZM972.868 1674.07L973.052 1675.06L973.052 1675.06L972.868 1674.07ZM803.825 1709.62L803.594 1708.65L803.825 1710.62V1709.62ZM516.076 1780.62L516.538 1781.51L516.076 1779.62V1780.62ZM217.11 1669.58L217.781 1668.84L217.328 1668.43L216.757 1668.65L217.11 1669.58ZM59.09 1756.76L58.3492 1756.09L58.349 1756.09L59.09 1756.76ZM28.0512 1852.53L29.0033 1852.22L29.0033 1852.22L28.0512 1852.53ZM29.6359 1856.9L28.7091 1857.28L28.7127 1857.28L28.7164 1857.29L29.6359 1856.9ZM29.6365 1856.9L30.5643 1856.53L30.5602 1856.52L30.5559 1856.51L29.6365 1856.9ZM29.6399 1856.91L28.7121 1857.28L30.6399 1856.91H29.6399ZM29.6399 1856.9L30.5658 1856.52L28.6399 1856.9H29.6399ZM29.6434 1856.91L30.5749 1856.54L30.5722 1856.54L30.5693 1856.53L29.6434 1856.91ZM29.644 1856.91L28.7125 1857.27L28.7174 1857.29L29.644 1856.91ZM31.6512 1861.2L32.535 1860.73L32.535 1860.73L31.6512 1861.2ZM105.24 1909.87L105.133 1910.86L105.133 1910.86L105.24 1909.87ZM465.927 1808.34L466.42 1809.21L466.42 1809.21L465.927 1808.34ZM2207.98 1474.06L2207.98 1473.06L2207.24 1473.06L2207.02 1473.77L2207.98 1474.06ZM2215.64 1512.72L2215.58 1511.72L2215.58 1511.72L2215.64 1512.72ZM2193.75 1514.03L2192.83 1513.64L2192.22 1515.12L2193.81 1515.02L2193.75 1514.03ZM505.885 2.44531H1795.21V0.445312H505.885V2.44531ZM75.8849 432.445C75.8849 194.963 268.402 2.44531 505.885 2.44531V0.445312C267.298 0.445312 73.8849 193.858 73.8849 432.445H75.8849ZM75.8849 1349.62V432.445H73.8849V1349.62H75.8849ZM198.702 1650.52C122.726 1572.97 75.8849 1466.77 75.8849 1349.62H73.8849C73.8849 1467.31 120.946 1574.01 197.274 1651.92L198.702 1650.52ZM197.624 1650.29C179.469 1657.38 159.814 1665.64 140.541 1674.72L141.394 1676.53C160.617 1667.47 180.229 1659.23 198.352 1652.15L197.624 1650.29ZM140.541 1674.72C103.057 1692.39 63.3453 1714.85 40.5714 1739.97L42.0529 1741.31C64.5369 1716.52 103.924 1694.2 141.394 1676.53L140.541 1674.72ZM40.5765 1739.96L40.5715 1739.97L42.0427 1741.32L42.0478 1741.31L40.5765 1739.96ZM40.5661 1739.97C28.499 1753.29 15.4933 1771.89 7.54869 1793.15L9.42209 1793.85C17.2574 1772.89 30.1063 1754.49 42.0481 1741.31L40.5661 1739.97ZM7.54869 1793.15C-0.41343 1814.45 -3.99085 1840.5 6.47183 1866.3L8.32527 1865.55C-1.88908 1840.36 1.57 1814.85 9.42209 1793.85L7.54869 1793.15ZM7.59006 1866.91L7.59381 1866.91L7.21079 1864.95L7.20704 1864.95L7.59006 1866.91ZM6.47564 1866.3C14.208 1885.37 30.8223 1901.33 47.0241 1912.4L48.1522 1910.75C32.1075 1899.79 15.852 1884.1 8.32897 1865.55L6.47564 1866.3ZM47.0241 1912.4C63.4523 1923.62 83.687 1932.7 102.568 1934.73L102.782 1932.74C84.3286 1930.75 64.4053 1921.85 48.1522 1910.75L47.0241 1912.4ZM102.617 1934.73L102.619 1934.73L102.735 1932.73L102.733 1932.73L102.617 1934.73ZM102.57 1934.73C264.347 1952.1 389.817 1880.65 481.326 1828.55L480.337 1826.81C388.801 1878.92 263.849 1950.04 102.784 1932.74L102.57 1934.73ZM481.294 1828.56L481.298 1828.56L480.373 1826.79L480.369 1826.79L481.294 1828.56ZM481.33 1828.54C504.021 1815.62 524.601 1803.91 543.145 1795.01L542.28 1793.21C523.66 1802.14 503.014 1813.9 480.341 1826.8L481.33 1828.54ZM543.145 1795.01C552.629 1790.46 562.658 1785.97 573.203 1781.55L572.429 1779.7C561.856 1784.14 551.797 1788.64 542.28 1793.21L543.145 1795.01ZM1795.21 1779.62H572.816V1781.62H1795.21V1779.62ZM2181.71 1538.32C2111.82 1681.21 1965.01 1779.62 1795.21 1779.62V1781.62C1965.8 1781.62 2113.29 1682.75 2183.51 1539.19L2181.71 1538.32ZM2182.67 1539.75C2183.55 1539.7 2184.42 1539.64 2185.28 1539.59L2185.16 1537.6C2184.3 1537.65 2183.43 1537.7 2182.55 1537.76L2182.67 1539.75ZM2185.28 1539.59C2203.51 1538.47 2217.71 1537.64 2227.34 1537.09L2227.23 1535.09C2217.59 1535.64 2203.39 1536.47 2185.16 1537.6L2185.28 1539.59ZM2227.34 1537.09C2229.07 1536.99 2230.65 1536.9 2232.09 1536.82L2231.98 1534.82C2230.54 1534.9 2228.96 1534.99 2227.23 1535.09L2227.34 1537.09ZM2232.09 1536.82C2234.64 1536.68 2236.72 1536.56 2238.3 1536.48L2238.19 1534.48C2236.61 1534.57 2234.53 1534.68 2231.98 1534.82L2232.09 1536.82ZM2238.3 1536.48C2239.54 1536.41 2240.47 1536.36 2241.09 1536.32L2240.98 1534.33C2240.36 1534.36 2239.43 1534.41 2238.19 1534.48L2238.3 1536.48ZM2241.09 1536.32L2242 1536.28L2241.89 1534.28L2240.98 1534.33L2241.09 1536.32ZM2242.01 1536.28C2242.01 1536.28 2242.01 1536.28 2242.02 1536.28C2242.02 1536.27 2242.04 1536.27 2242.05 1536.27C2242.08 1536.27 2242.12 1536.26 2242.17 1536.25C2242.29 1536.22 2242.43 1536.17 2242.57 1536.06C2242.81 1535.87 2242.89 1535.63 2242.91 1535.56C2242.93 1535.47 2242.94 1535.4 2242.94 1535.37C2242.95 1535.34 2242.95 1535.32 2242.95 1535.3C2242.95 1535.26 2242.95 1535.22 2242.95 1535.2C2242.95 1535.14 2242.94 1535.04 2242.93 1534.85C2242.91 1534.48 2242.88 1533.73 2242.8 1532.23C2242.64 1529.23 2242.33 1523.24 2241.7 1511.26L2239.7 1511.36C2240.33 1523.35 2240.65 1529.34 2240.8 1532.33C2240.88 1533.83 2240.92 1534.58 2240.93 1534.95C2240.94 1535.14 2240.95 1535.23 2240.95 1535.26C2240.95 1535.29 2240.95 1535.27 2240.95 1535.24C2240.95 1535.23 2240.95 1535.21 2240.95 1535.18C2240.96 1535.15 2240.96 1535.08 2240.99 1535C2241.01 1534.93 2241.09 1534.68 2241.33 1534.49C2241.61 1534.27 2241.91 1534.28 2241.89 1534.28L2242.01 1536.28ZM2239.7 1511.36L2240.96 1535.33L2242.96 1535.22L2241.7 1511.26L2239.7 1511.36ZM2242.01 1536.28L2274.53 1534.57L2274.43 1532.57L2241.91 1534.28L2242.01 1536.28ZM2275.42 1533.22L2244.62 1449.65L2242.74 1450.35L2273.54 1533.91L2275.42 1533.22ZM2243.68 1449H2226.95V1451H2243.68V1449ZM2225.95 1450V1474H2227.95V1450H2225.95ZM2227.95 1474C2227.95 1462 2227.95 1456 2227.94 1453C2227.94 1451.5 2227.94 1450.75 2227.94 1450.37C2227.94 1450.18 2227.94 1450.08 2227.93 1450.02C2227.93 1450 2227.93 1449.94 2227.93 1449.88C2227.92 1449.86 2227.92 1449.83 2227.91 1449.78C2227.9 1449.75 2227.88 1449.65 2227.82 1449.54C2227.76 1449.42 2227.62 1449.22 2227.36 1449.1C2227.24 1449.04 2227.13 1449.02 2227.05 1449.01C2227.01 1449 2226.98 1449 2226.96 1449C2226.95 1449 2226.94 1449 2226.94 1449C2226.93 1449 2226.93 1449 2226.93 1449V1451C2226.96 1451 2226.73 1451.01 2226.5 1450.9C2226.24 1450.78 2226.1 1450.58 2226.04 1450.46C2225.99 1450.35 2225.96 1450.26 2225.96 1450.22C2225.95 1450.18 2225.94 1450.15 2225.94 1450.13C2225.93 1450.08 2225.93 1450.05 2225.94 1450.08C2225.94 1450.11 2225.94 1450.19 2225.94 1450.38C2225.94 1450.75 2225.94 1451.5 2225.94 1453C2225.95 1456 2225.95 1462 2225.95 1474H2227.95ZM2226.93 1449L2225.89 1449L2225.89 1451L2226.93 1451L2226.93 1449ZM2225.89 1449L2224.73 1449L2224.73 1451L2225.89 1451L2225.89 1449ZM2224.73 1449C2224.18 1449 2223.54 1449 2222.79 1449.01L2222.8 1451.01C2223.54 1451 2224.18 1451 2224.73 1451L2224.73 1449ZM2222.79 1449.01C2220.75 1449.01 2217.96 1449.02 2214.45 1449.03L2214.46 1451.03C2217.96 1451.02 2220.75 1451.01 2222.8 1451.01L2222.79 1449.01ZM2220.02 1416.65C2218.27 1427.85 2216.08 1438.9 2213.49 1449.8L2215.43 1450.26C2218.04 1439.32 2220.24 1428.21 2222 1416.96L2220.02 1416.65ZM2247.25 1416.42C2240.09 1416.25 2231.3 1416.04 2221.03 1415.8L2220.99 1417.8C2231.25 1418.04 2240.04 1418.25 2247.2 1418.42L2247.25 1416.42ZM2257.7 1416.68C2254.75 1416.6 2251.26 1416.52 2247.25 1416.42L2247.2 1418.42C2251.21 1418.52 2254.7 1418.6 2257.65 1418.67L2257.7 1416.68ZM2263.52 1416.82C2261.91 1416.78 2259.97 1416.73 2257.7 1416.68L2257.65 1418.67C2259.92 1418.73 2261.86 1418.78 2263.47 1418.82L2263.52 1416.82ZM2267.73 1416.93C2266.79 1416.9 2265.38 1416.87 2263.52 1416.82L2263.47 1418.82C2265.33 1418.87 2266.73 1418.9 2267.68 1418.93L2267.73 1416.93ZM2269.15 1416.97L2267.73 1416.93L2267.68 1418.93L2269.1 1418.96L2269.15 1416.97ZM2268.76 1393.95C2268.44 1405.94 2268.29 1411.94 2268.21 1414.94C2268.17 1416.44 2268.15 1417.19 2268.14 1417.56C2268.13 1417.75 2268.13 1417.84 2268.13 1417.88C2268.13 1417.91 2268.13 1417.91 2268.13 1417.9C2268.13 1417.9 2268.13 1417.89 2268.13 1417.88C2268.13 1417.87 2268.13 1417.84 2268.14 1417.8C2268.14 1417.78 2268.15 1417.74 2268.16 1417.7C2268.17 1417.66 2268.2 1417.56 2268.27 1417.45C2268.34 1417.33 2268.48 1417.15 2268.73 1417.05C2268.95 1416.95 2269.15 1416.97 2269.12 1416.97V1418.97C2269.1 1418.97 2269.3 1418.98 2269.52 1418.88C2269.76 1418.78 2269.91 1418.6 2269.98 1418.48C2270.05 1418.37 2270.08 1418.27 2270.09 1418.23C2270.1 1418.19 2270.11 1418.15 2270.11 1418.13C2270.12 1418.09 2270.12 1418.06 2270.12 1418.05C2270.12 1418.04 2270.12 1418.03 2270.12 1418.02C2270.12 1418 2270.12 1417.97 2270.12 1417.95C2270.13 1417.9 2270.13 1417.81 2270.13 1417.62C2270.15 1417.24 2270.17 1416.49 2270.21 1414.99C2270.29 1411.99 2270.44 1406 2270.76 1394L2268.76 1393.95ZM2270.13 1417.99L2270.76 1394L2268.76 1393.95L2268.13 1417.94L2270.13 1417.99ZM2293.79 1417.61L2269.15 1416.97L2269.1 1418.96L2293.73 1419.61L2293.79 1417.61ZM2292.76 1356.21V1418.61H2294.76V1356.21H2292.76ZM2273.09 1354.2L2293.62 1357.2L2293.9 1355.22L2273.38 1352.22L2273.09 1354.2ZM2273.98 1354.99L2274.22 1353.35L2272.24 1353.06L2272 1354.7L2273.98 1354.99ZM2273.1 1354.2C2273.1 1354.2 2273.1 1354.2 2273.1 1354.2C2273.1 1354.2 2273.09 1354.2 2273.09 1354.2C2273.08 1354.19 2273.07 1354.19 2273.05 1354.19C2273.02 1354.18 2272.96 1354.17 2272.9 1354.15C2272.76 1354.1 2272.62 1354.02 2272.49 1353.88C2272.28 1353.65 2272.24 1353.4 2272.24 1353.35C2272.23 1353.27 2272.23 1353.21 2272.23 1353.19C2272.23 1353.17 2272.23 1353.15 2272.23 1353.14C2272.23 1353.11 2272.23 1353.09 2272.23 1353.1C2272.23 1353.12 2272.22 1353.17 2272.21 1353.27C2272.18 1353.47 2272.12 1353.88 2272 1354.7L2273.98 1354.99C2274.1 1354.17 2274.16 1353.76 2274.19 1353.55C2274.2 1353.45 2274.21 1353.39 2274.22 1353.36C2274.22 1353.35 2274.22 1353.32 2274.22 1353.28C2274.22 1353.27 2274.23 1353.25 2274.23 1353.22C2274.23 1353.2 2274.23 1353.14 2274.22 1353.06C2274.21 1353.01 2274.17 1352.76 2273.96 1352.53C2273.84 1352.39 2273.69 1352.31 2273.55 1352.26C2273.49 1352.24 2273.43 1352.23 2273.4 1352.22C2273.38 1352.22 2273.37 1352.22 2273.36 1352.21C2273.36 1352.21 2273.35 1352.21 2273.35 1352.21C2273.35 1352.21 2273.35 1352.21 2273.35 1352.21L2273.1 1354.2ZM2271.42 1353.95L2273.08 1354.19L2273.37 1352.22L2271.71 1351.97L2271.42 1353.95ZM2269.07 1353.61L2271.42 1353.95L2271.71 1351.97L2269.36 1351.63L2269.07 1353.61ZM2266.56 1353.25L2269.07 1353.61L2269.36 1351.63L2266.84 1351.27L2266.56 1353.25ZM2247.97 1350.56C2256.01 1351.72 2262.29 1352.63 2266.56 1353.25L2266.84 1351.27C2262.58 1350.65 2256.3 1349.74 2248.25 1348.58L2247.97 1350.56ZM2226.07 1347.43C2234.37 1348.61 2241.7 1349.66 2247.97 1350.56L2248.25 1348.58C2241.99 1347.68 2234.65 1346.63 2226.36 1345.45L2226.07 1347.43ZM2225.21 432.445V1346.44H2227.21V432.445H2225.21ZM1795.21 2.44531C2032.7 2.44531 2225.21 194.963 2225.21 432.445H2227.21C2227.21 193.858 2033.8 0.445312 1795.21 0.445312V2.44531ZM2269.76 1376.95C2269.9 1375.96 2269.9 1375.96 2269.9 1375.96C2269.9 1375.96 2269.9 1375.96 2269.9 1375.96C2269.9 1375.96 2269.9 1375.96 2269.9 1375.96C2269.9 1375.96 2269.9 1375.96 2269.89 1375.96C2269.88 1375.96 2269.87 1375.96 2269.86 1375.96C2269.83 1375.95 2269.78 1375.95 2269.72 1375.94C2269.59 1375.92 2269.4 1375.89 2269.15 1375.85C2268.65 1375.78 2267.91 1375.67 2266.93 1375.53C2264.98 1375.25 2262.08 1374.83 2258.31 1374.28C2250.78 1373.19 2239.77 1371.61 2225.85 1369.62L2225.57 1371.6C2239.48 1373.59 2250.49 1375.17 2258.03 1376.26C2261.79 1376.81 2264.69 1377.23 2266.65 1377.51C2267.62 1377.65 2268.37 1377.76 2268.86 1377.83C2269.11 1377.87 2269.3 1377.9 2269.43 1377.92C2269.49 1377.92 2269.54 1377.93 2269.57 1377.94C2269.58 1377.94 2269.6 1377.94 2269.6 1377.94C2269.61 1377.94 2269.61 1377.94 2269.61 1377.94C2269.61 1377.94 2269.61 1377.94 2269.61 1377.94C2269.61 1377.94 2269.62 1377.94 2269.62 1377.94C2269.62 1377.94 2269.62 1377.94 2269.76 1376.95ZM2270.76 1393.97V1376.95H2268.76V1393.97H2270.76ZM2267.25 1394.91C2268.07 1394.93 2268.69 1394.95 2269.11 1394.96C2269.32 1394.96 2269.47 1394.97 2269.58 1394.97C2269.63 1394.97 2269.67 1394.97 2269.69 1394.97C2269.71 1394.97 2269.72 1394.97 2269.72 1394.97C2269.73 1394.97 2269.73 1394.97 2269.73 1394.97C2269.73 1394.97 2269.73 1394.97 2269.73 1394.97C2269.73 1394.97 2269.73 1394.97 2269.73 1394.97C2269.73 1394.97 2269.73 1394.97 2269.73 1394.97C2269.73 1394.97 2269.73 1394.97 2269.73 1394.97C2269.73 1394.97 2269.73 1394.97 2269.76 1393.97C2269.79 1392.97 2269.79 1392.97 2269.79 1392.97C2269.79 1392.97 2269.79 1392.97 2269.79 1392.97C2269.79 1392.97 2269.79 1392.97 2269.79 1392.97C2269.79 1392.97 2269.79 1392.97 2269.79 1392.97C2269.79 1392.97 2269.78 1392.97 2269.78 1392.97C2269.78 1392.97 2269.78 1392.97 2269.78 1392.97C2269.77 1392.97 2269.76 1392.97 2269.75 1392.97C2269.72 1392.97 2269.68 1392.97 2269.63 1392.97C2269.52 1392.97 2269.37 1392.96 2269.16 1392.96C2268.74 1392.95 2268.12 1392.93 2267.31 1392.91L2267.25 1394.91ZM2245.74 1394.38C2256.35 1394.63 2263.69 1394.82 2267.25 1394.91L2267.31 1392.91C2263.74 1392.82 2256.4 1392.63 2245.78 1392.38L2245.74 1394.38ZM2224.05 1393.87C2232.32 1394.06 2239.58 1394.23 2245.74 1394.38L2245.78 1392.38C2239.63 1392.23 2232.36 1392.06 2224.1 1391.87L2224.05 1393.87ZM2224.71 1370.56C2224.36 1378.02 2223.81 1385.42 2223.08 1392.77L2225.07 1392.97C2225.8 1385.58 2226.35 1378.15 2226.71 1370.66L2224.71 1370.56ZM2156.21 1336.43V432.445H2154.21V1336.43H2156.21ZM2156.21 432.445C2156.21 233.071 1994.59 71.4453 1795.21 71.4453V73.4453C1993.48 73.4453 2154.21 234.175 2154.21 432.445H2156.21ZM1795.21 71.4453H505.885V73.4453H1795.21V71.4453ZM505.885 71.4453C306.51 71.4453 144.885 233.071 144.885 432.445H146.885C146.885 234.175 307.615 73.4453 505.885 73.4453V71.4453ZM144.885 432.445V1349.62H146.885V432.445H144.885ZM144.885 1349.62C144.885 1460.36 194.742 1559.44 273.228 1625.66L274.518 1624.14C196.463 1558.28 146.885 1459.74 146.885 1349.62H144.885ZM1444.33 1471.86C1033.88 1493.91 555.708 1537.38 273.58 1623.94L274.166 1625.86C556.025 1539.37 1033.96 1495.91 1444.43 1473.86L1444.33 1471.86ZM1995.14 1451.86C1852.73 1454.72 1657.12 1460.43 1444.33 1471.86L1444.43 1473.86C1657.2 1462.43 1852.79 1456.71 1995.18 1453.86L1995.14 1451.86ZM2140.85 1449.59C2102.84 1450 2053.44 1450.69 1995.14 1451.86L1995.18 1453.86C2053.47 1452.69 2102.86 1452 2140.88 1451.59L2140.85 1449.59ZM2141.82 1450.87C2145.2 1439.29 2148.01 1427.47 2150.23 1415.45L2148.26 1415.09C2146.06 1427.04 2143.26 1438.8 2139.9 1450.31L2141.82 1450.87ZM2149.26 1414.27C2102.7 1413.33 2045.29 1412.3 1982.01 1411.41L1981.98 1413.41C2045.25 1414.3 2102.66 1415.33 2149.22 1416.27L2149.26 1414.27ZM1982.01 1411.41C1818.83 1409.12 1616.95 1407.81 1461.32 1411.73L1461.37 1413.73C1616.96 1409.81 1818.81 1411.12 1981.98 1413.41L1982.01 1411.41ZM1461.32 1411.73C1365.36 1414.14 1173.22 1422.96 1004.78 1431.2L1004.88 1433.19C1173.32 1424.96 1365.44 1416.14 1461.37 1413.73L1461.32 1411.73ZM1004.78 1431.2C920.622 1435.31 842.478 1439.28 785.372 1442.21L785.475 1444.21C842.58 1441.27 920.722 1437.31 1004.88 1433.19L1004.78 1431.2ZM785.372 1442.21C756.82 1443.68 733.528 1444.89 717.376 1445.73L717.48 1447.73C733.632 1446.89 756.923 1445.68 785.475 1444.21L785.372 1442.21ZM717.376 1445.73C712.804 1445.97 708.805 1446.18 705.42 1446.36L705.524 1448.35C708.909 1448.18 712.909 1447.97 717.48 1447.73L717.376 1445.73ZM705.42 1446.36C702.824 1446.49 700.59 1446.61 698.736 1446.71L698.841 1448.71C700.695 1448.61 702.929 1448.49 705.524 1448.35L705.42 1446.36ZM698.736 1446.71L693.872 1446.96L693.977 1448.96L698.841 1448.71L698.736 1446.71ZM693.872 1446.96L692.221 1447.05L692.326 1449.05L693.978 1448.96L693.872 1446.96ZM692.216 1447.05C692.192 1447.05 692.359 1447.03 692.545 1447.09C692.774 1447.15 692.942 1447.29 693.052 1447.42C693.145 1447.54 693.19 1447.65 693.209 1447.7C693.23 1447.75 693.241 1447.8 693.247 1447.82C693.258 1447.87 693.263 1447.91 693.264 1447.92C693.266 1447.93 693.267 1447.94 693.268 1447.95C693.269 1447.96 693.269 1447.97 693.267 1447.94C693.265 1447.9 693.259 1447.81 693.249 1447.62C693.229 1447.25 693.188 1446.5 693.109 1445C692.949 1442.01 692.632 1436.01 691.999 1424.03L690.001 1424.14C690.635 1436.12 690.952 1442.11 691.112 1445.11C691.191 1446.6 691.232 1447.35 691.252 1447.73C691.262 1447.92 691.268 1448.01 691.271 1448.07C691.273 1448.09 691.274 1448.11 691.277 1448.14C691.277 1448.15 691.279 1448.16 691.281 1448.18C691.282 1448.19 691.288 1448.23 691.299 1448.27C691.304 1448.3 691.316 1448.35 691.337 1448.4C691.356 1448.45 691.401 1448.56 691.494 1448.68C691.604 1448.81 691.772 1448.95 692.001 1449.01C692.102 1449.04 692.188 1449.05 692.245 1449.05C692.266 1449.05 692.298 1449.05 692.309 1449.05C692.32 1449.05 692.33 1449.05 692.33 1449.05L692.216 1447.05ZM691 1424.08C691.053 1425.08 691.053 1425.08 691.053 1425.08C691.053 1425.08 691.053 1425.08 691.053 1425.08C691.054 1425.08 691.054 1425.08 691.055 1425.08C691.056 1425.08 691.058 1425.08 691.06 1425.08C691.066 1425.08 691.073 1425.08 691.083 1425.08C691.104 1425.08 691.134 1425.08 691.175 1425.08C691.257 1425.07 691.378 1425.06 691.54 1425.06C691.863 1425.04 692.346 1425.01 692.983 1424.98C694.258 1424.91 696.151 1424.81 698.627 1424.68C703.579 1424.42 710.858 1424.04 720.172 1423.56L720.068 1421.56C710.754 1422.04 703.474 1422.43 698.522 1422.69C696.046 1422.82 694.153 1422.92 692.878 1422.98C692.24 1423.02 691.758 1423.04 691.435 1423.06C691.273 1423.07 691.151 1423.07 691.07 1423.08C691.029 1423.08 690.998 1423.08 690.978 1423.08C690.968 1423.08 690.96 1423.08 690.955 1423.08C690.952 1423.08 690.95 1423.08 690.949 1423.08C690.948 1423.08 690.948 1423.08 690.948 1423.08C690.948 1423.08 690.947 1423.08 690.947 1423.08C690.947 1423.08 690.947 1423.08 691 1424.08ZM720.172 1423.56C839.707 1417.32 1294.18 1393.92 1460.77 1389.73L1460.71 1387.73C1294.09 1391.92 839.588 1415.32 720.068 1421.56L720.172 1423.56ZM1460.77 1389.73C1678.77 1384.25 1986.79 1388.98 2152.8 1392.33L2152.84 1390.33C1986.83 1386.98 1678.77 1382.25 1460.71 1387.73L1460.77 1389.73ZM2153.82 1391.45C2154.99 1381.31 2155.74 1371.05 2156.05 1360.67L2154.05 1360.61C2153.74 1370.93 2152.99 1381.14 2151.83 1391.22L2153.82 1391.45ZM2155.19 1359.65C1978.11 1334.94 1645.36 1290.5 1519.68 1287.14L1519.62 1289.14C1645.16 1292.49 1977.78 1336.91 2154.91 1361.63L2155.19 1359.65ZM1519.68 1287.14C1223.98 1279.26 1033.53 1296.13 910.921 1320.42C788.329 1344.71 733.495 1376.44 709.137 1398.32L710.473 1399.81C734.454 1378.26 788.89 1346.64 911.309 1322.39C1033.72 1298.13 1224.01 1281.26 1519.62 1289.14L1519.68 1287.14ZM709.137 1398.32C700.812 1405.8 696.045 1412.13 693.352 1416.62C692.006 1418.87 691.18 1420.65 690.687 1421.89C690.441 1422.51 690.278 1422.99 690.175 1423.32C690.124 1423.49 690.088 1423.62 690.063 1423.71C690.051 1423.75 690.042 1423.79 690.036 1423.82C690.033 1423.83 690.03 1423.84 690.028 1423.85C690.027 1423.85 690.027 1423.85 690.026 1423.86C690.026 1423.86 690.025 1423.86 690.025 1423.86C690.025 1423.86 690.025 1423.86 690.025 1423.86C690.025 1423.86 690.024 1423.86 691 1424.08C691.976 1424.3 691.975 1424.3 691.975 1424.3C691.975 1424.3 691.975 1424.3 691.975 1424.3C691.975 1424.31 691.975 1424.31 691.975 1424.31C691.975 1424.31 691.975 1424.31 691.975 1424.3C691.976 1424.3 691.977 1424.3 691.978 1424.29C691.982 1424.28 691.987 1424.26 691.996 1424.22C692.014 1424.16 692.043 1424.05 692.086 1423.91C692.173 1423.63 692.319 1423.2 692.545 1422.63C692.998 1421.49 693.777 1419.8 695.068 1417.65C697.65 1413.34 702.285 1407.16 710.473 1399.81L709.137 1398.32ZM691.22 1423.11C679.512 1420.47 673.665 1419.14 670.747 1418.46C669.284 1418.12 668.569 1417.95 668.222 1417.86C668.034 1417.81 667.998 1417.8 668.015 1417.8C668.024 1417.81 668.055 1417.82 668.095 1417.84C668.127 1417.86 668.218 1417.91 668.313 1418C668.424 1418.11 668.556 1418.29 668.598 1418.55C668.633 1418.77 668.58 1418.95 668.586 1418.93L666.636 1418.48C666.636 1418.48 666.636 1418.48 666.636 1418.48C666.636 1418.48 666.635 1418.48 666.635 1418.49C666.634 1418.49 666.632 1418.5 666.631 1418.51C666.627 1418.52 666.622 1418.55 666.618 1418.58C666.61 1418.65 666.604 1418.75 666.623 1418.87C666.666 1419.13 666.8 1419.32 666.915 1419.43C667.082 1419.59 667.273 1419.66 667.288 1419.67C667.394 1419.71 667.538 1419.75 667.713 1419.79C668.092 1419.89 668.834 1420.07 670.294 1420.41C673.22 1421.09 679.074 1422.42 690.78 1425.06L691.22 1423.11ZM668.585 1418.93L668.612 1418.81L666.664 1418.36L666.637 1418.48L668.585 1418.93ZM668.611 1418.82L668.646 1418.67L666.7 1418.21L666.665 1418.35L668.611 1418.82ZM668.645 1418.68L668.668 1418.58L666.725 1418.11L666.701 1418.2L668.645 1418.68ZM668.668 1418.58C668.707 1418.42 668.75 1418.25 668.798 1418.07L666.865 1417.56C666.814 1417.75 666.768 1417.93 666.725 1418.11L668.668 1418.58ZM668.798 1418.07C668.894 1417.71 669.006 1417.31 669.139 1416.88L667.227 1416.29C667.087 1416.75 666.967 1417.17 666.865 1417.56L668.798 1418.07ZM669.139 1416.88C669.405 1416.01 669.751 1415.01 670.2 1413.87L668.34 1413.14C667.872 1414.32 667.509 1415.38 667.227 1416.29L669.139 1416.88ZM670.2 1413.87C671.099 1411.6 672.399 1408.83 674.271 1405.67L672.55 1404.65C670.624 1407.9 669.277 1410.76 668.34 1413.14L670.2 1413.87ZM674.271 1405.67C678.026 1399.32 683.984 1391.52 693.379 1382.91L692.027 1381.44C682.499 1390.17 676.413 1398.12 672.55 1404.65L674.271 1405.67ZM693.379 1382.91C712.093 1365.76 744.395 1345.41 800.45 1326.4L799.808 1324.5C743.574 1343.58 711.003 1364.05 692.027 1381.44L693.379 1382.91ZM800.45 1326.4C912.254 1288.48 1122.6 1254.54 1520.26 1265.15L1520.32 1263.15C1122.56 1252.54 911.943 1286.47 799.808 1324.5L800.45 1326.4ZM1520.26 1265.15C1609.07 1267.52 1797.92 1289.92 1963.2 1311.49L1963.46 1309.51C1798.21 1287.94 1609.25 1265.52 1520.32 1263.15L1520.26 1265.15ZM1963.2 1311.49C2034.42 1320.78 2101.6 1329.97 2155.08 1337.42L2155.35 1335.44C2101.87 1327.99 2034.69 1318.8 1963.46 1309.51L1963.2 1311.49ZM693.266 1448L691.999 1424.03L690.001 1424.14L691.268 1448.1L693.266 1448ZM660.684 1450.72L692.32 1449.05L692.214 1447.05L660.578 1448.72L660.684 1450.72ZM666.61 1418.6L659.655 1449.5L661.606 1449.94L668.561 1419.03L666.61 1418.6ZM691.22 1423.11L667.805 1417.84L667.366 1419.79L690.78 1425.06L691.22 1423.11ZM2132.89 1473.68C1974.55 1475.47 1636.73 1482.02 1277.91 1505.88C919.125 1529.74 539.252 1570.92 296.872 1642.01L297.435 1643.93C539.581 1572.91 919.254 1531.74 1278.05 1507.88C1636.81 1484.02 1974.59 1477.47 2132.91 1475.68L2132.89 1473.68ZM296.573 1643.78C355.612 1685.87 427.859 1710.62 505.885 1710.62V1708.62C428.289 1708.62 356.445 1684.01 297.734 1642.16L296.573 1643.78ZM505.885 1710.62H707.813V1708.62H505.885V1710.62ZM708.084 1710.59C1111.36 1597.19 1823.3 1539.78 2112.91 1520.23L2112.77 1518.23C1823.21 1537.78 1111.05 1595.2 707.542 1708.66L708.084 1710.59ZM2113.72 1519.7C2121.39 1505.36 2128.13 1490.44 2133.84 1475.03L2131.96 1474.33C2126.28 1489.66 2119.59 1504.5 2111.96 1518.76L2113.72 1519.7ZM2031.99 1549.99C2055.73 1548.25 2077.86 1546.68 2098.17 1545.29L2098.03 1543.29C2077.72 1544.69 2055.58 1546.25 2031.85 1547.99L2031.99 1549.99ZM1539.62 1594.58C1727.72 1574 1903.36 1559.42 2031.99 1549.99L2031.85 1547.99C1903.2 1557.43 1727.54 1572.01 1539.41 1592.59L1539.62 1594.58ZM973.052 1675.06C1151.14 1641.71 1351.47 1615.16 1539.62 1594.58L1539.41 1592.59C1351.22 1613.18 1150.84 1639.74 972.684 1673.09L973.052 1675.06ZM804.057 1710.6C856.875 1698.03 913.605 1686.18 973.052 1675.06L972.684 1673.09C913.211 1684.22 856.449 1696.07 803.594 1708.65L804.057 1710.6ZM803.825 1710.62H1795.21V1708.62H803.825V1710.62ZM1795.21 1710.62C1922.67 1710.62 2034.7 1644.57 2098.94 1544.83L2097.26 1543.75C2033.37 1642.94 1921.96 1708.62 1795.21 1708.62V1710.62ZM516.076 1779.62H505.885V1781.62H516.076V1779.62ZM505.885 1779.62C395.058 1779.62 294.026 1737.7 217.781 1668.84L216.44 1670.33C293.039 1739.5 394.544 1781.62 505.885 1781.62V1779.62ZM216.757 1668.65C189.498 1678.96 157.615 1692.32 128.704 1707.34C99.8176 1722.34 73.7975 1739.05 58.3492 1756.09L59.8307 1757.43C75.0287 1740.67 100.782 1724.1 129.626 1709.11C158.444 1694.14 190.249 1680.81 217.464 1670.52L216.757 1668.65ZM58.349 1756.09C48.2082 1767.28 37.5523 1782.53 30.8476 1799.43C24.1432 1816.33 21.3608 1834.96 27.099 1852.83L29.0033 1852.22C23.452 1834.93 26.1091 1816.79 32.7066 1800.16C39.3038 1783.53 49.8121 1768.49 59.8309 1757.43L58.349 1756.09ZM27.099 1852.83C27.5761 1854.32 28.1119 1855.8 28.7091 1857.28L30.5627 1856.52C29.9842 1855.1 29.4653 1853.66 29.0033 1852.22L27.099 1852.83ZM28.7164 1857.29L28.717 1857.29L30.5559 1856.51L30.5554 1856.51L28.7164 1857.29ZM28.7086 1857.27L28.7121 1857.28L30.5678 1856.54L30.5643 1856.53L28.7086 1857.27ZM30.6399 1856.91V1856.9H28.6399V1856.91H30.6399ZM28.7141 1857.28L28.7175 1857.29L30.5693 1856.53L30.5658 1856.52L28.7141 1857.28ZM28.712 1857.27L28.7125 1857.27L30.5755 1856.55L30.5749 1856.54L28.712 1857.27ZM28.7174 1857.29C29.3121 1858.75 29.9981 1860.21 30.7674 1861.67L32.535 1860.73C31.7949 1859.33 31.138 1857.93 30.5706 1856.53L28.7174 1857.29ZM30.7674 1861.67C37.145 1873.71 49.3086 1885.31 63.0294 1894.23C76.7522 1903.14 92.164 1909.47 105.133 1910.86L105.347 1908.88C92.7859 1907.53 77.6734 1901.36 64.1193 1892.55C50.5633 1883.74 38.6975 1872.37 32.535 1860.73L30.7674 1861.67ZM105.133 1910.86C258.28 1927.31 374.932 1861.11 466.42 1809.21L465.433 1807.47C373.919 1859.39 257.784 1925.25 105.347 1908.88L105.133 1910.86ZM466.42 1809.21C484.035 1799.22 500.708 1789.76 516.538 1781.51L515.614 1779.74C499.746 1788 483.041 1797.48 465.433 1807.47L466.42 1809.21ZM2226.95 1474C2226.95 1473 2226.95 1473 2226.95 1473C2226.95 1473 2226.95 1473 2226.95 1473C2226.95 1473 2226.95 1473 2226.95 1473C2226.95 1473 2226.95 1473 2226.95 1473C2226.94 1473 2226.94 1473 2226.93 1473C2226.92 1473 2226.9 1473 2226.87 1473C2226.82 1473 2226.75 1473 2226.64 1473C2226.44 1473 2226.13 1473 2225.73 1473C2224.92 1473 2223.71 1473 2222.12 1473.01C2218.92 1473.01 2214.18 1473.03 2207.98 1473.06L2207.99 1475.06C2214.19 1475.03 2218.93 1475.01 2222.12 1475.01C2223.72 1475 2224.92 1475 2225.73 1475C2226.14 1475 2226.44 1475 2226.64 1475C2226.75 1475 2226.82 1475 2226.87 1475C2226.9 1475 2226.92 1475 2226.93 1475C2226.94 1475 2226.94 1475 2226.95 1475C2226.95 1475 2226.95 1475 2226.95 1475C2226.95 1475 2226.95 1475 2226.95 1475C2226.95 1475 2226.95 1475 2226.95 1475C2226.95 1475 2226.95 1475 2226.95 1474ZM2241.64 1510.96L2227.89 1473.65L2226.01 1474.35L2239.76 1511.66L2241.64 1510.96ZM2215.7 1513.72C2223.85 1513.24 2230.11 1512.89 2234.34 1512.66C2236.45 1512.54 2238.06 1512.45 2239.13 1512.4C2239.67 1512.37 2240.07 1512.34 2240.35 1512.33C2240.48 1512.32 2240.58 1512.32 2240.65 1512.31C2240.68 1512.31 2240.71 1512.31 2240.73 1512.31C2240.74 1512.31 2240.74 1512.31 2240.75 1512.31C2240.75 1512.31 2240.75 1512.31 2240.75 1512.31C2240.75 1512.31 2240.75 1512.31 2240.75 1512.31C2240.75 1512.31 2240.75 1512.31 2240.75 1512.31C2240.75 1512.31 2240.75 1512.31 2240.7 1511.31C2240.65 1510.31 2240.65 1510.31 2240.65 1510.31C2240.65 1510.31 2240.65 1510.31 2240.65 1510.31C2240.65 1510.31 2240.65 1510.31 2240.65 1510.31C2240.64 1510.31 2240.64 1510.31 2240.64 1510.31C2240.64 1510.31 2240.63 1510.31 2240.62 1510.31C2240.6 1510.31 2240.58 1510.32 2240.54 1510.32C2240.48 1510.32 2240.37 1510.33 2240.24 1510.33C2239.97 1510.35 2239.56 1510.37 2239.02 1510.4C2237.95 1510.46 2236.34 1510.54 2234.23 1510.66C2230 1510.89 2223.74 1511.25 2215.58 1511.72L2215.7 1513.72ZM2193.81 1515.02C2202.16 1514.52 2209.48 1514.08 2215.7 1513.72L2215.58 1511.72C2209.36 1512.09 2202.04 1512.52 2193.69 1513.03L2193.81 1515.02ZM2207.02 1473.77C2202.93 1487.36 2198.19 1500.66 2192.83 1513.64L2194.67 1514.41C2200.06 1501.36 2204.83 1488 2208.94 1474.35L2207.02 1473.77Z" fill="black" mask="url(#path-1-outside-1_2_745)"/>
<rect x="110.385" y="36.9453" width="2080.33" height="1708.18" rx="395.5" fill="#E61617" stroke="white" stroke-width="71"/>
<path fill-rule="evenodd" clip-rule="evenodd" d="M690.292 893.596C683.553 879.987 677.256 865.897 670.852 851.566C667.685 844.48 664.492 837.335 661.206 830.161C661.206 830.16 661.205 830.159 661.205 830.158C660.208 827.982 659.203 825.803 658.188 823.623C658.186 823.618 658.184 823.613 658.181 823.609C658.199 823.596 658.217 823.582 658.235 823.569C659.499 822.634 660.753 821.689 661.997 820.733C661.998 820.733 661.998 820.733 661.998 820.733C679.687 807.145 695.381 791.453 709.254 773.552C718.267 761.921 726.512 749.358 734.036 735.833C763.451 682.913 778.413 624.101 771.867 559.879C763.791 480.446 715.164 417.242 645.114 418.42C603.268 419.128 561.422 418.971 519.576 418.813C498.088 418.732 476.599 418.652 455.111 418.688C454.156 418.696 453.194 418.694 452.228 418.693C446.792 418.683 441.243 418.674 436.153 420.402C386.549 437.06 356.497 477.071 345.785 540.543C342.12 562.265 338.459 583.987 334.797 605.709C311.958 741.201 289.119 876.695 265.491 1011.95C253.207 1082.17 290.655 1132.63 339.962 1129.79C386.209 1127.11 432.455 1079.38 443.252 1022.39C444.912 1013.66 446.498 1004.9 448.038 996.125C450.43 982.505 452.712 968.849 454.995 955.196C456.815 944.306 458.635 933.418 460.509 922.553C462.302 912.063 464.123 901.592 466.07 890.456C466.074 890.437 466.077 890.419 466.08 890.4C467.027 884.988 468.004 879.418 469.022 873.613C469.531 870.706 470.051 867.74 470.583 864.705C471.606 867.398 472.503 869.745 473.31 871.855C475.119 876.585 476.473 880.127 477.767 883.72C483.604 899.813 489.45 915.903 495.296 931.992C495.308 932.026 495.32 932.059 495.332 932.092C495.394 932.262 495.456 932.432 495.517 932.601C502.097 950.71 508.677 968.82 515.245 986.935C524.695 1013 534.12 1039.08 543.481 1065.19C553.98 1094.49 570.898 1114.15 596.359 1118.49C634.53 1124.97 667.004 1109.86 690.893 1071.08C713.676 1034.07 729.998 966.742 699.309 910.93C696.191 905.254 693.201 899.47 690.292 893.596ZM594.01 595.451C591.966 594.334 589.763 593.64 587.433 593.463C570.873 592.256 554.271 592.51 537.583 592.766C530.582 592.874 523.567 592.981 516.532 592.981C516.117 595.359 515.702 597.731 515.289 600.097C513.026 613.048 510.796 625.844 508.55 638.726C506.134 652.594 503.699 666.562 501.188 680.931C508.536 680.931 515.703 680.937 522.75 680.943C536.491 680.955 549.772 680.967 563.034 680.931C564.337 680.925 565.632 680.847 566.915 680.702C577.096 679.549 586.586 674.12 594.01 665.81C601.012 657.971 606.176 647.57 608.346 635.778C611.318 619.533 604.938 601.426 594.01 595.451ZM485.89 1100.87C455.616 1163.2 400.407 1207.21 342.907 1210.54L342.89 1210.54C299.809 1213.02 258.266 1192 230.459 1150.19C202.329 1107.89 192.896 1051.43 202.838 994.57C202.839 994.562 202.841 994.554 202.842 994.546C226.414 859.615 249.197 724.452 272.038 588.95C275.701 567.22 279.365 545.48 283.035 523.732L283.035 523.728C290.405 480.059 305.288 439.936 329.815 407.316C354.344 374.693 385.329 353.818 419.58 342.306C434.659 337.218 451.297 337.744 454.251 337.838C454.475 337.845 454.62 337.85 454.68 337.849L454.853 337.848L455.025 337.847C477.118 337.81 498.898 337.893 520.513 337.974C562.007 338.131 602.898 338.286 644.253 337.587L644.257 337.587C750.514 335.799 823.755 434.089 835.5 549.606C844.46 637.568 823.265 716.214 786.583 782.21L786.575 782.224L786.567 782.239C773.544 805.647 758.775 826.81 742.217 845.747C745.322 852.188 748.517 858.471 752.041 864.888C804.779 960.8 773.912 1068.11 741.583 1120.63L741.57 1120.65C702.706 1183.74 647.028 1208.66 587.792 1198.6L587.777 1198.6L587.762 1198.6C536.448 1189.85 503.53 1148.46 485.89 1100.87Z" fill="white"/>
<path fill-rule="evenodd" clip-rule="evenodd" d="M2039.77 973.01C2048.87 1023.14 2026.64 1082.76 1988.3 1111.26C1963.09 1130 1936.4 1139.64 1907.41 1127.27C1879.35 1115.33 1861.33 1091.97 1858.52 1053.3C1857.97 1045.86 1855.63 1043.61 1849.9 1043.61C1832.07 1043.68 1814.26 1043.69 1796.44 1043.7C1764.38 1043.71 1732.31 1043.73 1700.23 1044.14C1696.41 1044.14 1691.43 1048.8 1689.01 1053.09C1666.48 1092.67 1637.02 1118.75 1598.94 1128.98C1558.86 1139.8 1526.21 1115.59 1516.01 1066.91C1514.87 1061.5 1514.51 1055.85 1514.15 1050.19C1513.98 1047.43 1513.81 1044.68 1513.54 1041.94L1513.59 1041.89C1513.5 1016.56 1519.45 993.631 1530.33 972.742C1547.29 940.198 1564.23 907.649 1581.18 875.101C1648.96 744.904 1716.75 614.707 1784.86 484.785C1814.4 428.437 1859.16 411.457 1905.32 424.58C1932.78 432.401 1945.75 458.218 1951.66 490.409C1981.19 651.144 2010.46 811.987 2039.74 972.829L2039.77 973.01ZM2014.16 472.193C2043.71 633.025 2073 793.95 2102.27 954.782L2102.31 954.992C2118.38 1043.55 2080.28 1136.73 2020.9 1180.87C2020.9 1180.88 2020.89 1180.88 2020.89 1180.89C1987.01 1206.08 1940.29 1226.64 1886.87 1203.86C1864.93 1194.52 1842.63 1178.88 1825.01 1153.24C1818.85 1144.28 1813.65 1134.67 1809.38 1124.53C1804.9 1124.54 1800.44 1124.54 1795.97 1124.54C1772.42 1124.55 1749.06 1124.56 1725.61 1124.73C1696.39 1166.19 1658.76 1195.55 1612.38 1208.03C1612.37 1208.03 1612.37 1208.03 1612.36 1208.04C1579.1 1217.01 1543.99 1212.53 1513.57 1189.81C1482.93 1166.94 1462.87 1129.89 1454 1087.62C1451.75 1076.95 1450.96 1067.44 1450.55 1061.88C1450.25 1057.64 1450.15 1055.84 1450.08 1054.68C1450.02 1053.61 1450 1053.1 1449.86 1051.72L1446.08 1012.61L1452.01 1005.15C1456.05 977.161 1464.68 951.455 1476.7 928.383M1849.4 1124.45C1849.57 1124.45 1849.7 1124.45 1849.79 1124.45C1849.79 1124.45 1849.8 1124.45 1849.8 1124.45C1849.84 1124.45 1849.87 1124.45 1849.9 1124.45M1849.4 1124.45C1849.53 1124.45 1849.66 1124.45 1849.79 1124.45ZM2014.16 472.193C2005.26 423.693 1980.31 363.058 1919.47 345.729L1919.44 345.722C1850.11 326.013 1777.12 352.89 1731.33 440.224L1731.33 440.225C1663.16 570.265 1595.3 700.597 1527.51 830.805C1510.57 863.34 1493.64 895.867 1476.7 928.381M1827.75 749.97C1827.91 749.632 1828.06 749.294 1828.22 748.956C1828.56 749.064 1828.91 749.171 1829.26 749.278C1829.61 749.385 1829.96 749.492 1830.3 749.599L1830.3 749.622C1830.33 749.928 1830.36 750.235 1830.39 750.542C1831.48 762.517 1832.58 774.492 1833.68 786.49C1836.13 813.245 1838.59 840.112 1841.1 867.33H1773.77C1774.53 865.669 1775.29 864.01 1776.06 862.352C1781.66 850.166 1787.23 838.052 1792.78 825.988C1798.86 812.77 1804.91 799.614 1810.95 786.49C1816.56 774.296 1822.15 762.13 1827.75 749.97Z" fill="white"/>
<path fill-rule="evenodd" clip-rule="evenodd" d="M1272.3 945.047C1274.53 945.285 1276.79 945.429 1279.09 945.479C1301.43 946.003 1322.1 940.742 1340.55 928.299C1340.59 928.278 1340.62 928.256 1340.65 928.234C1350.46 921.604 1359.63 912.942 1368.09 902.04C1370.6 898.812 1373.02 895.484 1376.16 891.179C1377.6 889.197 1379.19 887.007 1381.02 884.525L1381.1 884.471C1381.06 884.471 1381.03 884.471 1380.99 884.471C1380.99 884.471 1380.98 884.471 1380.97 884.471C1375.66 884.47 1370.71 884.391 1366 884.315C1361.7 884.246 1357.59 884.181 1353.6 884.181C1353.6 884.181 1353.59 884.181 1353.59 884.181C1348.51 884.181 1343.61 884.288 1338.72 884.632C1320.74 885.83 1304.15 878.212 1292.54 863.883C1277.68 845.534 1271 816.179 1280.02 780.238C1291.79 733.371 1331.33 698.715 1366.01 699.251C1371.63 699.343 1377.25 699.403 1382.87 699.441C1392.48 699.505 1402.1 699.501 1411.72 699.475C1411.72 699.475 1411.73 699.475 1411.73 699.475C1416.54 699.462 1421.36 699.444 1426.17 699.425C1442.11 699.364 1458.06 699.302 1474 699.445C1474 699.445 1474 699.445 1474 699.445C1480.46 699.503 1486.91 699.595 1493.36 699.733C1513.54 700.163 1530.03 711.088 1539.9 728.304C1548.48 743.254 1552.06 762.947 1548.74 784.63C1524.09 945.051 1453.53 1059.68 1330.86 1117.36C1260.26 1150.57 1189.57 1147.63 1123.47 1096.26C1070.3 1054.91 1038.54 993.364 1031.19 916.609C1013.34 729.728 1070.89 585.055 1193.82 480.394C1237.98 442.793 1287.03 420.35 1339.91 411.619C1410.6 399.996 1472.53 425.01 1526 483.607C1561.22 522.145 1564.64 582.023 1534.57 627.7C1534.55 627.733 1534.53 627.765 1534.51 627.798C1523.03 645.177 1510.17 659.721 1493.81 666.44C1493.81 666.441 1493.81 666.441 1493.81 666.442C1487.68 668.958 1481.06 670.376 1473.85 670.434C1461.27 670.541 1450.85 664.864 1441.16 654.74C1428.98 642.005 1416.5 629.423 1403.19 618.651C1402.9 618.414 1402.6 618.178 1402.31 617.943C1369.28 591.483 1333.79 588.537 1298 606.962C1242.49 635.565 1187.95 708.035 1189.95 808.626C1190.63 842.799 1197.35 875.526 1213.67 903.647C1228.33 928.985 1248.33 942.485 1272.3 945.047ZM1587.49 673.743C1635.39 595.611 1628.85 489.126 1568.1 422.607C1568.09 422.599 1568.09 422.59 1568.08 422.582C1568.08 422.579 1568.07 422.576 1568.07 422.573C1501.32 349.441 1421.22 316.724 1331.61 331.458L1331.58 331.464C1269.44 341.723 1210.83 368.349 1157.9 413.409C1088.84 472.206 1035.16 544.882 1001.82 632.827C968.387 721.037 957.312 819.661 967.496 926.271L967.499 926.298C977.26 1028.19 1020.47 1111.16 1089.78 1165.05L1089.79 1165.06L1089.8 1165.07C1175.04 1231.31 1266.82 1233.77 1353.29 1193.1C1353.29 1193.1 1353.29 1193.1 1353.29 1193.1C1498.72 1124.71 1583.21 985.582 1611.73 800L1611.73 799.97L1611.74 799.941C1618.64 754.855 1610.5 709.001 1587.49 673.743Z" fill="white"/>
<path fill-rule="evenodd" clip-rule="evenodd" d="M950.504 337.797L950.872 337.795C980.189 337.665 1009.9 347.284 1035.01 370.087C1060.59 393.312 1077.7 426.946 1084.92 465.798C1089.98 492.956 1089.63 521.616 1085.43 546.875C1073.66 617.955 1061.79 688.027 1049.97 757.895C1035.38 844.03 1020.86 929.853 1006.62 1016.87L1006.61 1016.88L1006.61 1016.89C992.968 1100.16 954.466 1166.17 886.203 1198.25L886.183 1198.26L886.164 1198.27C850.183 1215.14 808.856 1217.3 768.766 1192.38M1022.63 530.313C1025.1 515.53 1025.18 498.872 1022.46 484.249C1014.69 442.363 987.482 418.474 951.096 418.635L951.011 418.742C909.61 415.314 856.563 465.609 846.191 519.226C838.368 559.647 831.476 600.372 824.581 641.112C823.271 648.851 821.961 656.59 820.645 664.327C812.362 712.931 804.154 761.563 795.946 810.199C784.651 877.122 773.355 944.054 761.859 1010.93C753.57 1059.3 766.28 1100.7 797.139 1119.88C818.86 1133.38 841.516 1132.95 863.789 1122.5C908.93 1101.29 934.052 1059.94 943.785 1000.54C957.989 913.749 972.66 827.072 987.332 740.392C999.181 670.389 1011.03 600.383 1022.63 530.313ZM950.504 337.797C950.504 337.797 929.354 336.768 924.434 337.912C919.514 339.055 921.539 338.706 921.539 338.706C893.103 345.279 868.055 364.216 848.214 383.166C820.645 409.497 793.556 449.986 783.865 500.072C783.864 500.075 783.864 500.078 783.863 500.081C775.799 541.747 768.683 583.803 761.791 624.528C760.495 632.187 759.207 639.8 757.922 647.354C757.921 647.361 757.92 647.368 757.918 647.375C757.918 647.377 757.917 647.38 757.917 647.383C749.569 696.367 741.348 745.078 733.142 793.702C721.884 860.411 710.653 926.957 699.16 993.819L699.151 993.868C686.265 1069.06 705.227 1152.9 768.765 1192.38M950.504 337.797C953.22 337.677 947.759 337.699 950.504 337.797Z" fill="white"/>
<path d="M658.163 823.569C672.233 853.779 684.304 883.613 699.309 910.93C729.998 966.742 713.676 1034.07 690.893 1071.08C667.004 1109.86 634.53 1124.97 596.359 1118.49C570.898 1114.15 553.98 1094.49 543.481 1065.19C521.761 1004.61 499.7 944.192 477.767 883.72C475.897 878.525 473.899 873.436 470.583 864.705C466.8 886.291 463.612 904.395 460.509 922.553C454.771 955.816 449.543 989.292 443.252 1022.39C432.455 1079.38 386.209 1127.11 339.962 1129.79C290.655 1132.63 253.207 1082.17 265.491 1011.95C292.908 855.011 319.261 697.75 345.785 540.543C356.497 477.072 386.549 437.06 436.153 420.402C442.147 418.367 448.778 418.742 455.111 418.688C518.445 418.581 581.779 419.492 645.114 418.42C715.164 417.242 763.791 480.446 771.867 559.88C778.413 624.101 763.451 682.913 734.037 735.833C714.101 771.667 689.107 800.751 658.163 823.623V823.569ZM501.188 680.931C522.866 680.931 542.971 680.985 563.034 680.931C584.415 680.824 603.585 661.649 608.346 635.778C611.874 616.495 602.225 594.588 587.433 593.463C563.927 591.749 540.336 592.981 516.533 592.981C511.389 622.387 506.459 650.776 501.188 680.931Z" fill="#22684E"/>
<path d="M1381.1 884.471C1364.69 884.471 1351.69 883.721 1338.72 884.632C1297.7 887.363 1263.95 844.245 1280.02 780.238C1291.79 733.371 1331.33 698.715 1366.01 699.251C1408.47 699.947 1450.94 698.823 1493.36 699.733C1531.06 700.537 1555.89 737.977 1548.74 784.63C1524.09 945.051 1453.53 1059.67 1330.86 1117.36C1260.26 1150.57 1189.57 1147.63 1123.47 1096.26C1070.3 1054.91 1038.54 993.364 1031.19 916.609C1013.34 729.728 1070.89 585.055 1193.82 480.394C1237.98 442.792 1287.03 420.35 1339.91 411.619C1410.6 399.996 1472.53 425.01 1526 483.607C1561.24 522.173 1564.64 582.109 1534.5 627.798C1518.74 651.687 1500.33 670.22 1473.85 670.434C1461.27 670.541 1450.85 664.864 1441.16 654.74C1428.71 641.725 1415.96 628.87 1402.31 617.943C1369.28 591.483 1333.79 588.537 1298 606.962C1242.49 635.565 1187.95 708.035 1189.95 808.626C1190.63 842.799 1197.35 875.526 1213.67 903.647C1229.69 931.339 1252.09 944.89 1279.09 945.479C1313.35 946.283 1343.69 933.481 1368.09 902.04C1371.75 897.326 1375.23 892.398 1381.02 884.525L1381.1 884.471Z" fill="#22684E"/>
<path d="M1513.59 1041.89C1513.5 1016.56 1519.45 993.631 1530.33 972.742C1615.09 810.018 1699.72 647.187 1784.86 484.785C1814.4 428.437 1859.16 411.457 1905.32 424.58C1932.78 432.4 1945.75 458.218 1951.66 490.409C1981.2 651.204 2010.48 812.107 2039.77 973.01C2048.87 1023.14 2026.64 1082.76 1988.3 1111.26C1963.09 1130 1936.4 1139.64 1907.41 1127.27C1879.35 1115.33 1861.33 1091.97 1858.52 1053.3C1857.97 1045.86 1855.63 1043.61 1849.9 1043.61C1799.99 1043.82 1750.13 1043.5 1700.23 1044.14C1696.41 1044.14 1691.43 1048.8 1689.01 1053.09C1666.48 1092.67 1637.02 1118.75 1598.94 1128.98C1558.86 1139.8 1526.21 1115.59 1516.01 1066.91C1514.31 1058.87 1514.35 1050.3 1513.54 1041.94L1513.59 1041.89ZM1830.3 749.599C1829.62 749.385 1828.9 749.171 1828.22 748.956C1810.19 788.111 1792.17 827.319 1773.77 867.33H1841.1C1837.44 827.587 1833.87 788.593 1830.3 749.599Z" fill="#22684E"/>
<path d="M951.097 418.635C987.482 418.474 1014.69 442.363 1022.46 484.249C1025.18 498.872 1025.1 515.53 1022.63 530.313C996.663 687.145 969.459 843.656 943.786 1000.54C934.052 1059.94 908.931 1101.29 863.789 1122.5C841.516 1132.95 818.86 1133.38 797.139 1119.88C766.28 1100.7 753.57 1059.3 761.859 1010.93C781.71 895.451 800.965 779.809 820.645 664.327C828.891 615.853 836.883 567.325 846.191 519.226C856.563 465.61 909.611 415.314 951.012 418.742L951.097 418.635Z" fill="#22684E"/>
<path d="M501.188 680.932C506.459 650.776 511.389 622.387 516.533 592.981C540.336 592.981 563.969 591.696 587.433 593.464C602.268 594.535 611.916 616.496 608.346 635.778C603.585 661.703 584.415 680.878 563.034 680.932C542.929 680.985 522.866 680.932 501.188 680.932Z" fill="white"/>
<path d="M1835.58 674.879L1743.93 876.892L1876.74 880.633L1835.58 674.879Z" fill="white"/>
<path d="M480.733 680.923C488.002 640.209 494.802 601.881 501.895 562.179C534.724 562.179 567.317 560.443 599.677 562.83C620.136 564.276 633.443 593.926 628.519 619.96C621.953 654.961 595.515 680.851 566.028 680.923C538.3 680.995 510.63 680.923 480.733 680.923Z" fill="white"/>
<path d="M29.64 1856.91C14.91 1820.58 38.09 1779.93 59.09 1756.76C97.38 1714.54 201.63 1673.9 253.49 1656.61C801.35 1474 2226.95 1474 2226.95 1474L2240.7 1511.31C2240.7 1511.31 933.37 1580.04 532.33 1772.47C432.38 1820.43 297.68 1930.54 105.24 1909.87C78.17 1906.96 39.87 1882.13 29.64 1856.9V1856.91Z" fill="#A7CC3A"/>
<path d="M691 1424.08C691 1424.08 726.35 1266.98 1519.65 1288.14C1694.37 1292.8 2269.76 1376.95 2269.76 1376.95V1393.97C2269.76 1393.97 1772.96 1380.88 1460.74 1388.73C1268.17 1393.57 691 1424.08 691 1424.08Z" fill="#FFB533"/>
</svg>